<mxfile host="Electron" agent="Mozilla/5.0 (Windows NT 10.0; Win64; x64) AppleWebKit/537.36 (KHTML, like Gecko) draw.io/26.2.2 Chrome/134.0.6998.178 Electron/35.1.2 Safari/537.36" version="26.2.2">
  <diagram name="Page-1" id="glBbXT54p4Q-yVnUknxY">
    <mxGraphModel dx="1095" dy="649" grid="1" gridSize="10" guides="1" tooltips="1" connect="1" arrows="1" fold="1" page="1" pageScale="1" pageWidth="850" pageHeight="1100" math="0" shadow="0">
      <root>
        <mxCell id="0" />
        <mxCell id="1" parent="0" />
        <mxCell id="E8rhsb3aOCaVDkDRGNbv-1" value="Administrator" style="shape=umlActor;verticalLabelPosition=bottom;verticalAlign=top;html=1;outlineConnect=0;" parent="1" vertex="1">
          <mxGeometry x="70" y="160" width="30" height="60" as="geometry" />
        </mxCell>
        <mxCell id="E8rhsb3aOCaVDkDRGNbv-25" value="DSScraper" style="swimlane;whiteSpace=wrap;html=1;startSize=40;" parent="1" vertex="1">
          <mxGeometry x="130" y="60" width="200" height="370" as="geometry" />
        </mxCell>
        <mxCell id="E8rhsb3aOCaVDkDRGNbv-29" value="Zapnutí scraperu na poslední data" style="ellipse;whiteSpace=wrap;html=1;" parent="E8rhsb3aOCaVDkDRGNbv-25" vertex="1">
          <mxGeometry x="24.38" y="60" width="151.25" height="70" as="geometry" />
        </mxCell>
        <mxCell id="7wecndLdy_W1koadpDC_-5" value="Načtení dat z Čsts api:&lt;div&gt;&lt;span style=&quot;color: rgba(0, 0, 0, 0); font-family: monospace; font-size: 0px; text-align: start; text-wrap-mode: nowrap;&quot;&gt;%3CmxGraphModel%3E%3Croot%3E%3CmxCell%20id%3D%220%22%2F%3E%3CmxCell%20id%3D%221%22%20parent%3D%220%22%2F%3E%3CmxCell%20id%3D%222%22%20value%3D%22Zji%C5%A1t%C4%9Bn%C3%AD%20zda%20je%20anal%C3%BDza%20odem%C4%8Den%C3%A1%22%20style%3D%22ellipse%3BwhiteSpace%3Dwrap%3Bhtml%3D1%3B%22%20vertex%3D%221%22%20parent%3D%221%22%3E%3CmxGeometry%20x%3D%22425%22%20y%3D%22390%22%20width%3D%22125%22%20height%3D%2260%22%20as%3D%22geometry%22%2F%3E%3C%2FmxCell%3E%3C%2Froot%3E%3C%2FmxGraphModel%3E&lt;/span&gt;&lt;/div&gt;" style="ellipse;whiteSpace=wrap;html=1;" vertex="1" parent="E8rhsb3aOCaVDkDRGNbv-25">
          <mxGeometry x="37.49999999999999" y="180" width="125" height="60" as="geometry" />
        </mxCell>
        <mxCell id="7wecndLdy_W1koadpDC_-6" value="&amp;lt;&amp;lt;includes&amp;gt;&amp;gt;" style="endArrow=none;dashed=1;html=1;rounded=0;exitX=0.5;exitY=0;exitDx=0;exitDy=0;entryX=0.5;entryY=1;entryDx=0;entryDy=0;endFill=1;startFill=1;startArrow=classic;" edge="1" parent="E8rhsb3aOCaVDkDRGNbv-25" source="7wecndLdy_W1koadpDC_-5" target="E8rhsb3aOCaVDkDRGNbv-29">
          <mxGeometry x="-0.0005" width="50" height="50" relative="1" as="geometry">
            <mxPoint x="358" y="330" as="sourcePoint" />
            <mxPoint x="233" y="230" as="targetPoint" />
            <mxPoint as="offset" />
          </mxGeometry>
        </mxCell>
        <mxCell id="E8rhsb3aOCaVDkDRGNbv-26" value="DSDatabase" style="swimlane;whiteSpace=wrap;html=1;startSize=40;" parent="1" vertex="1">
          <mxGeometry x="360" y="60" width="200" height="370" as="geometry" />
        </mxCell>
        <mxCell id="7wecndLdy_W1koadpDC_-9" value="Zápis do databáze" style="ellipse;whiteSpace=wrap;html=1;" vertex="1" parent="E8rhsb3aOCaVDkDRGNbv-26">
          <mxGeometry x="24.370000000000005" y="60" width="151.25" height="70" as="geometry" />
        </mxCell>
        <mxCell id="5smXDKDg5CDrbSM5bVvS-12" value="" style="endArrow=none;html=1;rounded=0;entryX=0;entryY=0.5;entryDx=0;entryDy=0;exitX=0.5;exitY=0.5;exitDx=0;exitDy=0;exitPerimeter=0;" parent="1" source="E8rhsb3aOCaVDkDRGNbv-1" target="E8rhsb3aOCaVDkDRGNbv-29" edge="1">
          <mxGeometry width="50" height="50" relative="1" as="geometry">
            <mxPoint x="60" y="350" as="sourcePoint" />
            <mxPoint x="110" y="300" as="targetPoint" />
          </mxGeometry>
        </mxCell>
        <mxCell id="7wecndLdy_W1koadpDC_-10" value="&amp;lt;&amp;lt;includes&amp;gt;&amp;gt;" style="endArrow=none;dashed=1;html=1;rounded=0;exitX=0;exitY=0.5;exitDx=0;exitDy=0;entryX=1;entryY=0.5;entryDx=0;entryDy=0;endFill=1;startFill=1;startArrow=classic;" edge="1" parent="1" source="7wecndLdy_W1koadpDC_-9" target="7wecndLdy_W1koadpDC_-5">
          <mxGeometry x="-0.0005" width="50" height="50" relative="1" as="geometry">
            <mxPoint x="240" y="250" as="sourcePoint" />
            <mxPoint x="240" y="200" as="targetPoint" />
            <mxPoint as="offset" />
          </mxGeometry>
        </mxCell>
      </root>
    </mxGraphModel>
  </diagram>
</mxfile>
